<?xml version="1.0" encoding="UTF-8" standalone="no"?>
<!-- Created with Inkscape (http://www.inkscape.org/) -->

<svg
   xmlns:dc="http://purl.org/dc/elements/1.1/"
   xmlns:cc="http://creativecommons.org/ns#"
   xmlns:rdf="http://www.w3.org/1999/02/22-rdf-syntax-ns#"
   xmlns:svg="http://www.w3.org/2000/svg"
   xmlns="http://www.w3.org/2000/svg"
   xmlns:xlink="http://www.w3.org/1999/xlink"
   xmlns:sodipodi="http://sodipodi.sourceforge.net/DTD/sodipodi-0.dtd"
   xmlns:inkscape="http://www.inkscape.org/namespaces/inkscape"
   width="1280"
   height="720"
   id="svg4152"
   version="1.1"
   inkscape:version="0.91 r"
   viewBox="0 0 1280 720"
   sodipodi:docname="arrows-and-annotations.svg">
  <defs
     id="defs4154">
    <marker
       inkscape:stockid="Arrow2Mend"
       orient="auto"
       refY="0.0"
       refX="0.0"
       id="Arrow2Mend"
       style="overflow:visible;"
       inkscape:isstock="true">
      <path
         id="path4932"
         style="fill-rule:evenodd;stroke-width:0.625;stroke-linejoin:round;stroke:#ffff00;stroke-opacity:1;fill:#ffff00;fill-opacity:1"
         d="M 8.7185878,4.0337352 L -2.2072895,0.016013256 L 8.7185884,-4.0017078 C 6.9730900,-1.6296469 6.9831476,1.6157441 8.7185878,4.0337352 z "
         transform="scale(0.6) rotate(180) translate(0,0)" />
    </marker>
    <marker
       inkscape:stockid="Arrow2Lend"
       orient="auto"
       refY="0.0"
       refX="0.0"
       id="Arrow2Lend"
       style="overflow:visible;"
       inkscape:isstock="true">
      <path
         id="path4926"
         style="fill-rule:evenodd;stroke-width:0.625;stroke-linejoin:round;stroke:#000000;stroke-opacity:1;fill:#000000;fill-opacity:1"
         d="M 8.7185878,4.0337352 L -2.2072895,0.016013256 L 8.7185884,-4.0017078 C 6.9730900,-1.6296469 6.9831476,1.6157441 8.7185878,4.0337352 z "
         transform="scale(1.1) rotate(180) translate(1,0)" />
    </marker>
    <linearGradient
       inkscape:collect="always"
       id="linearGradient4812">
      <stop
         style="stop-color:#deaa87;stop-opacity:1;"
         offset="0"
         id="stop4814" />
      <stop
         style="stop-color:#deaa87;stop-opacity:0;"
         offset="1"
         id="stop4816" />
    </linearGradient>
    <inkscape:path-effect
       effect="spiro"
       id="path-effect4722"
       is_visible="true" />
    <linearGradient
       inkscape:collect="always"
       xlink:href="#linearGradient4702"
       id="linearGradient4710"
       x1="936.66669"
       y1="453.33334"
       x2="865"
       y2="1181.6666"
       gradientUnits="userSpaceOnUse"
       gradientTransform="translate(-1.3505859e-5,-2.7117578e-5)" />
    <linearGradient
       inkscape:collect="always"
       id="linearGradient4702">
      <stop
         style="stop-color:#80b3ff;stop-opacity:1;"
         offset="0"
         id="stop4704" />
      <stop
         style="stop-color:#80b3ff;stop-opacity:0;"
         offset="1"
         id="stop4706" />
    </linearGradient>
    <linearGradient
       inkscape:collect="always"
       xlink:href="#linearGradient4812"
       id="linearGradient4820"
       x1="828.33331"
       y1="291.14908"
       x2="760"
       y2="879.48242"
       gradientUnits="userSpaceOnUse" />
    <filter
       style="color-interpolation-filters:sRGB;"
       inkscape:label="Drop Shadow"
       id="filter5477">
      <feFlood
         flood-opacity="0.341176"
         flood-color="rgb(0,0,0)"
         result="flood"
         id="feFlood5479" />
      <feComposite
         in="flood"
         in2="SourceGraphic"
         operator="in"
         result="composite1"
         id="feComposite5481" />
      <feGaussianBlur
         in="composite1"
         stdDeviation="3"
         result="blur"
         id="feGaussianBlur5483" />
      <feOffset
         dx="4"
         dy="4"
         result="offset"
         id="feOffset5485" />
      <feComposite
         in="SourceGraphic"
         in2="offset"
         operator="over"
         result="composite2"
         id="feComposite5487" />
    </filter>
    <marker
       inkscape:stockid="Arrow2Mend"
       orient="auto"
       refY="0"
       refX="0"
       id="Arrow2Mend-2"
       style="overflow:visible"
       inkscape:isstock="true">
      <path
         inkscape:connector-curvature="0"
         id="path4932-1"
         style="fill:#ffffff;fill-opacity:1;fill-rule:evenodd;stroke:#000000;stroke-width:0.625;stroke-linejoin:round;stroke-opacity:1"
         d="M 8.7185878,4.0337352 -2.2072895,0.01601326 8.7185884,-4.0017078 c -1.7454984,2.3720609 -1.7354408,5.6174519 -6e-7,8.035443 z"
         transform="scale(-0.6,-0.6)" />
    </marker>
    <filter
       style="color-interpolation-filters:sRGB"
       inkscape:label="Drop Shadow"
       id="filter5477-1">
      <feFlood
         flood-opacity="0.341176"
         flood-color="rgb(0,0,0)"
         result="flood"
         id="feFlood5479-4" />
      <feComposite
         in="flood"
         in2="SourceGraphic"
         operator="in"
         result="composite1"
         id="feComposite5481-2" />
      <feGaussianBlur
         in="composite1"
         stdDeviation="3"
         result="blur"
         id="feGaussianBlur5483-0" />
      <feOffset
         dx="4"
         dy="4"
         result="offset"
         id="feOffset5485-2" />
      <feComposite
         in="SourceGraphic"
         in2="offset"
         operator="over"
         result="composite2"
         id="feComposite5487-7" />
    </filter>
    <marker
       inkscape:stockid="Arrow2Mend"
       orient="auto"
       refY="0"
       refX="0"
       id="Arrow2Mend-7"
       style="overflow:visible"
       inkscape:isstock="true">
      <path
         inkscape:connector-curvature="0"
         id="path4932-2"
         style="fill:#ffff00;fill-opacity:1;fill-rule:evenodd;stroke:#ffff00;stroke-width:0.625;stroke-linejoin:round;stroke-opacity:1"
         d="M 8.7185878,4.0337352 -2.2072895,0.01601326 8.7185884,-4.0017078 c -1.7454984,2.3720609 -1.7354408,5.6174519 -6e-7,8.035443 z"
         transform="scale(-0.6,-0.6)" />
    </marker>
    <filter
       style="color-interpolation-filters:sRGB"
       inkscape:label="Drop Shadow"
       id="filter5477-4">
      <feFlood
         flood-opacity="0.341176"
         flood-color="rgb(0,0,0)"
         result="flood"
         id="feFlood5479-3" />
      <feComposite
         in="flood"
         in2="SourceGraphic"
         operator="in"
         result="composite1"
         id="feComposite5481-9" />
      <feGaussianBlur
         in="composite1"
         stdDeviation="3"
         result="blur"
         id="feGaussianBlur5483-6" />
      <feOffset
         dx="4"
         dy="4"
         result="offset"
         id="feOffset5485-27" />
      <feComposite
         in="SourceGraphic"
         in2="offset"
         operator="over"
         result="composite2"
         id="feComposite5487-73" />
    </filter>
    <filter
       style="color-interpolation-filters:sRGB;"
       inkscape:label="Drop Shadow"
       id="filter7617">
      <feFlood
         flood-opacity="0.341176"
         flood-color="rgb(0,0,0)"
         result="flood"
         id="feFlood7619" />
      <feComposite
         in="flood"
         in2="SourceGraphic"
         operator="in"
         result="composite1"
         id="feComposite7621" />
      <feGaussianBlur
         in="composite1"
         stdDeviation="3"
         result="blur"
         id="feGaussianBlur7623" />
      <feOffset
         dx="4"
         dy="4"
         result="offset"
         id="feOffset7625" />
      <feComposite
         in="SourceGraphic"
         in2="offset"
         operator="over"
         result="composite2"
         id="feComposite7627" />
    </filter>
    <filter
       style="color-interpolation-filters:sRGB"
       inkscape:label="Drop Shadow"
       id="filter7617-6">
      <feFlood
         flood-opacity="0.341176"
         flood-color="rgb(0,0,0)"
         result="flood"
         id="feFlood7619-8" />
      <feComposite
         in="flood"
         in2="SourceGraphic"
         operator="in"
         result="composite1"
         id="feComposite7621-1" />
      <feGaussianBlur
         in="composite1"
         stdDeviation="3"
         result="blur"
         id="feGaussianBlur7623-0" />
      <feOffset
         dx="4"
         dy="4"
         result="offset"
         id="feOffset7625-7" />
      <feComposite
         in="SourceGraphic"
         in2="offset"
         operator="over"
         result="composite2"
         id="feComposite7627-6" />
    </filter>
    <filter
       style="color-interpolation-filters:sRGB;"
       inkscape:label="Drop Shadow"
       id="filter8035">
      <feFlood
         flood-opacity="0.341176"
         flood-color="rgb(0,0,0)"
         result="flood"
         id="feFlood8037" />
      <feComposite
         in="flood"
         in2="SourceGraphic"
         operator="in"
         result="composite1"
         id="feComposite8039" />
      <feGaussianBlur
         in="composite1"
         stdDeviation="3"
         result="blur"
         id="feGaussianBlur8041" />
      <feOffset
         dx="4"
         dy="4"
         result="offset"
         id="feOffset8043" />
      <feComposite
         in="SourceGraphic"
         in2="offset"
         operator="over"
         result="composite2"
         id="feComposite8045" />
    </filter>
  </defs>
  <sodipodi:namedview
     id="base"
     pagecolor="#ffffff"
     bordercolor="#666666"
     borderopacity="1.0"
     inkscape:pageopacity="0.0"
     inkscape:pageshadow="2"
     inkscape:zoom="0.45254834"
     inkscape:cx="607.61166"
     inkscape:cy="345.64772"
     inkscape:current-layer="layer1"
     inkscape:document-units="px"
     showgrid="false"
     inkscape:window-width="1366"
     inkscape:window-height="713"
     inkscape:window-x="0"
     inkscape:window-y="30"
     inkscape:window-maximized="1" />
  <metadata
     id="metadata4157">
    <rdf:RDF>
      <cc:Work
         rdf:about="">
        <dc:format>image/svg+xml</dc:format>
        <dc:type
           rdf:resource="http://purl.org/dc/dcmitype/StillImage" />
        <dc:title></dc:title>
      </cc:Work>
    </rdf:RDF>
  </metadata>
  <g
     id="layer1"
     inkscape:label="Layer 1"
     inkscape:groupmode="layer"
     transform="translate(0,-480)">
    <g
       id="g4890">
      <rect
         y="480"
         x="0"
         height="720"
         width="1280"
         id="rect4700-7"
         style="opacity:1;fill:url(#linearGradient4710);fill-opacity:1;stroke:none;stroke-width:2;stroke-linecap:butt;stroke-linejoin:miter;stroke-miterlimit:4;stroke-dasharray:none;stroke-opacity:1" />
      <path
         id="rect4700"
         transform="translate(0,480)"
         d="M 215.32227 188.96484 C 213.20965 188.96467 211.10044 189.34235 209.14062 190.12695 C 206.00491 191.38232 203.27683 193.69719 201.66602 196.66602 C 199.90272 199.91591 199.53592 203.70886 198.73438 207.31836 C 198.33361 209.12311 197.81325 210.91519 196.95898 212.55469 C 196.1047 214.19419 194.89915 215.68215 193.33398 216.66602 C 191.64693 217.72651 189.63057 218.15239 187.64258 218.28906 C 185.6546 218.42566 183.65829 218.29378 181.66602 218.33398 C 174.50799 218.47846 167.50724 220.87603 161.34766 224.52539 C 155.18808 228.17476 149.82352 233.04324 145 238.33398 C 143.41979 240.06726 141.87349 241.86706 139.95117 243.21094 C 138.99001 243.88287 137.93721 244.43539 136.8125 244.76758 C 135.68779 245.09978 134.48836 245.20674 133.33398 245 C 131.47293 244.66671 129.81999 243.52966 128.60156 242.08398 C 127.38313 240.63829 126.56288 238.89781 125.92188 237.11914 C 124.63985 233.56179 123.96562 229.66772 121.66602 226.66602 C 120.22099 224.7798 118.23883 223.3955 116.36719 221.93164 C 114.49554 220.46779 112.65306 218.82743 111.66602 216.66602 C 111.06532 215.35062 110.8133 213.90013 110.7207 212.45703 C 110.6282 211.01393 110.69041 209.56715 110.69141 208.12109 C 110.69264 206.67502 110.63173 205.2173 110.29688 203.81055 C 109.962 202.40379 109.33822 201.04049 108.33398 200 C 107.6971 199.34013 106.91151 198.81964 106.04492 198.51953 C 105.17833 198.21943 104.23117 198.144 103.33398 198.33398 C 101.87058 198.64386 100.61689 199.64204 99.755859 200.86523 C 98.894835 202.08842 98.388409 203.52646 98.013672 204.97461 C 97.638936 206.42275 97.384615 207.90102 96.96875 209.33789 C 96.552886 210.77477 95.962366 212.18881 95 213.33398 C 93.78693 214.77747 92.064103 215.69868 90.308594 216.38672 C 88.553085 217.07476 86.721723 217.56529 85 218.33398 C 79.885205 220.61756 76.094877 225.25228 73.820312 230.37109 C 71.545749 235.48991 70.636362 241.10087 70 246.66602 C 69.239742 253.31468 68.835057 260.01873 67.548828 266.58594 C 66.262598 273.15315 64.035482 279.66169 60 285 C 56.641203 289.44316 52.177931 292.89683 48.066406 296.6543 C 43.95488 300.41177 40.046032 304.6998 38.333984 310 C 37.629665 312.18045 37.318383 314.46947 36.666016 316.66602 C 35.014517 322.22669 31.242141 326.93769 26.958984 330.84961 C 22.675827 334.76152 17.834649 338.00644 13.333984 341.66602 C 8.4360667 345.64861 4.0018517 350.09899 0 354.91016 L 0 591.58008 L 0 720 L 1280 720 L 1280 567.33203 L 1280 364.22656 C 1273.6149 372.61843 1267.496 381.2135 1261.666 390 C 1253.325 402.57088 1245.305 415.81875 1233.334 425 C 1223.6455 432.43065 1211.9392 436.73537 1201.666 443.33398 C 1191.77 449.69033 1183.3655 458.06577 1174.2578 465.50781 C 1165.1501 472.94985 1154.9197 479.63985 1143.334 481.66602 C 1131.7189 483.69732 1119.4398 480.72242 1109.625 474.1875 C 1099.8101 467.65258 1092.4427 457.71841 1088.334 446.66602 C 1087.759 445.11936 1087.2415 443.54525 1086.4863 442.07812 C 1085.7312 440.611 1084.7141 439.23842 1083.334 438.33398 C 1081.5107 437.13908 1079.1856 436.86633 1077.041 437.25781 C 1074.8965 437.6493 1072.9079 438.65475 1071.082 439.8457 C 1069.2561 441.03666 1067.5655 442.42129 1065.7812 443.67383 C 1063.9971 444.92637 1062.0933 446.05749 1060 446.66602 C 1056.0944 447.80139 1051.8444 447.00777 1048.1074 445.40234 C 1044.3703 443.7969 1041.0256 441.42411 1037.5918 439.24414 C 1034.158 437.06418 1030.5299 435.03355 1026.541 434.23828 C 1024.5466 433.84066 1022.4771 433.76274 1020.4785 434.13867 C 1018.4799 434.51461 1016.5543 435.3546 1015 436.66602 C 1013.6369 437.81611 1012.5913 439.2918 1011.5898 440.76758 C 1010.5884 442.24335 1009.6059 443.74978 1008.334 445 C 1006.5534 446.75027 1004.2555 447.93243 1001.8379 448.55664 C 999.4204 449.18084 996.88325 449.26354 994.40039 449 C 989.43467 448.47293 984.73137 446.59696 980 445 C 972.44293 442.44929 964.62166 440.56849 956.66602 440 C 950.06305 439.52817 943.35209 439.97491 936.99414 441.81836 C 930.63619 443.66181 924.63625 446.94087 920 451.66602 C 917.7951 453.9132 915.88626 456.49081 913.33398 458.33398 C 910.17694 460.61389 906.29044 461.59206 902.50781 462.51758 C 898.72517 463.4431 894.83838 464.40747 891.66602 466.66602 C 887.76086 469.44628 885.40026 473.84293 882.97266 477.97656 C 881.75886 480.04337 880.48874 482.08989 878.93164 483.91211 C 877.37455 485.73432 875.51282 487.33514 873.33398 488.33398 C 870.56757 489.60244 867.42637 489.8433 864.39258 489.60352 C 861.35879 489.36373 858.38293 488.66583 855.38672 488.13281 C 852.39051 487.59981 849.32278 487.23086 846.30859 487.65039 C 843.2944 488.06991 840.30986 489.35145 838.33398 491.66602 C 836.95257 493.28422 836.13527 495.30498 835.4707 497.32617 C 834.80613 499.34736 834.26612 501.4214 833.33398 503.33398 C 831.60442 506.8827 828.4863 509.76318 824.75781 511.06055 C 821.02932 512.35792 816.73071 512.01172 813.33398 510 C 810.26753 508.18389 808.05205 505.17419 805 503.33398 C 802.27289 501.68969 799.06043 501.08481 795.91406 500.59375 C 792.76768 500.10269 789.55185 499.68037 786.66602 498.33398 C 784.14107 497.15596 781.98692 495.32354 779.9043 493.47266 C 777.82167 491.62178 775.75484 489.71331 773.33398 488.33398 C 769.50928 486.15478 764.99161 485.42495 760.5918 485.5625 C 756.19199 485.70005 751.86263 486.65982 747.57812 487.66992 C 743.29363 488.68001 739.00011 489.74864 734.61328 490.11328 C 730.22644 490.47792 725.69515 490.10694 721.66602 488.33398 C 718.45334 486.92029 715.68977 484.68187 712.81641 482.66602 C 709.94305 480.65018 706.81342 478.79589 703.33398 478.33398 C 700.57723 477.96801 697.77589 478.50146 695 478.33398 C 692.0661 478.15697 689.20433 477.18895 686.66602 475.70703 C 684.1277 474.22511 681.90495 472.23837 680 470 C 677.66649 467.25807 675.80367 464.14628 673.53125 461.35352 C 671.25884 458.56075 668.45206 456.02308 665 455 C 662.85734 454.36498 660.58101 454.34769 658.35156 454.50195 C 656.12212 454.65621 653.90068 454.9768 651.66602 455 C 645.27696 455.06646 639.12056 452.70923 633.33398 450 C 625.03787 446.11582 617.10595 441.42865 608.56055 438.12891 C 600.01514 434.82917 590.59627 432.95968 581.66602 435 C 572.92289 436.99756 565.47156 442.50669 557.42578 446.46875 C 553.40289 448.44978 549.1448 450.06821 544.69336 450.60938 C 540.24193 451.15055 535.56266 450.55306 531.66602 448.33398 C 527.88809 446.1825 525.08482 442.68578 521.66602 440 C 516.94835 436.29383 511.19124 434.22321 505.59375 432.06445 C 499.99626 429.90569 494.30868 427.5086 490 423.33398 C 486.55202 419.99328 484.19589 415.71269 481.83008 411.53516 C 479.46427 407.35763 476.97158 403.13316 473.33398 400 C 468.44552 395.78945 461.83461 393.93055 455.38281 393.93555 C 448.93101 393.94041 442.59176 395.6774 436.56055 397.96875 C 430.52934 400.26009 424.72588 403.11181 418.72461 405.48047 C 412.72334 407.84914 406.44682 409.74645 400 410 C 389.44083 410.41529 378.79961 406.17799 371.34961 398.68359 C 363.89962 391.18919 359.73008 380.56388 360 370 C 360.05125 367.99557 360.25335 365.98938 360.12695 363.98828 C 360.00055 361.98719 359.51824 359.95197 358.33398 358.33398 C 357.50863 357.20634 356.3824 356.33415 355.21094 355.57227 C 354.03949 354.8104 352.80574 354.14256 351.66602 353.33398 C 347.45365 350.34548 344.79414 345.64395 342.7832 340.88672 C 340.77226 336.12949 339.25782 331.13343 336.66602 326.66602 C 332.90115 320.17662 327.09284 315.18037 321.66602 310 C 307.55854 296.5332 295.12031 280.48511 290 261.66602 C 288.60584 256.54195 287.72297 251.15412 284.94727 246.62695 C 283.55941 244.36336 281.68867 242.35033 279.36133 241.07227 C 277.03399 239.79421 274.22687 239.29858 271.66602 240 C 268.99082 240.73274 266.78478 242.69379 265.21484 244.98047 C 263.64489 247.26715 262.63574 249.88282 261.64258 252.47266 C 260.64942 255.0625 259.64539 257.68075 258.08594 259.97461 C 256.52649 262.26846 254.33439 264.24276 251.66602 265 C 249.03487 265.74667 246.12609 265.2261 243.76953 263.83789 C 241.41298 262.44968 239.59159 260.24796 238.41016 257.78125 C 236.04729 252.84781 236.19826 247.11608 236.66602 241.66602 C 237.24368 234.93543 238.23003 228.22788 238.26953 221.47266 C 238.30906 214.71744 237.34984 207.81374 234.25586 201.80859 C 232.70886 198.80602 230.63422 196.06012 228.05859 193.875 C 225.48296 191.68988 222.39999 190.0766 219.09766 189.36719 C 217.85929 189.10116 216.58983 188.96495 215.32227 188.96484 z "
         style="opacity:1;fill:url(#linearGradient4820);fill-opacity:1;stroke:none;stroke-width:2;stroke-linecap:butt;stroke-linejoin:miter;stroke-miterlimit:4;stroke-dasharray:none;stroke-opacity:1" />
      <rect
         y="479"
         x="0"
         height="36"
         width="1280"
         id="rect4800"
         style="opacity:1;fill:#e6e6e6;fill-opacity:1;stroke:none;stroke-width:2;stroke-linecap:butt;stroke-linejoin:miter;stroke-miterlimit:4;stroke-dasharray:none;stroke-opacity:1" />
    </g>
    <g
       id="g8025">
      <rect
         y="579.16754"
         x="59.722679"
         height="26"
         width="600"
         id="rect4822"
         style="opacity:1;fill:#e6e6e6;fill-opacity:1;stroke:none;stroke-width:2;stroke-linecap:butt;stroke-linejoin:miter;stroke-miterlimit:4;stroke-dasharray:none;stroke-opacity:1" />
      <rect
         y="604.75092"
         x="59.305931"
         height="400"
         width="600"
         id="rect4824"
         style="opacity:0.894;fill:#333333;fill-opacity:1;stroke:none;stroke-width:2;stroke-linecap:butt;stroke-linejoin:miter;stroke-miterlimit:4;stroke-dasharray:none;stroke-opacity:1" />
      <rect
         y="710.30463"
         x="90.337997"
         height="8.333333"
         width="126.66666"
         id="rect7797"
         style="opacity:0.894;fill:#ffffff;fill-opacity:0.3103448;stroke:none;stroke-width:6;stroke-linecap:butt;stroke-linejoin:miter;stroke-miterlimit:4;stroke-dasharray:none;stroke-opacity:1" />
      <rect
         style="opacity:0.894;fill:#ffffff;fill-opacity:0.3103448;stroke:none;stroke-width:6;stroke-linecap:butt;stroke-linejoin:miter;stroke-miterlimit:4;stroke-dasharray:none;stroke-opacity:1"
         id="rect7808"
         width="38.333324"
         height="8.333333"
         x="224.58821"
         y="710.3761" />
      <rect
         y="733.70892"
         x="89.403572"
         height="8.333333"
         width="258.33331"
         id="rect7810"
         style="opacity:0.894;fill:#ffffff;fill-opacity:0.3103448;stroke:none;stroke-width:6;stroke-linecap:butt;stroke-linejoin:miter;stroke-miterlimit:4;stroke-dasharray:none;stroke-opacity:1" />
      <rect
         style="opacity:0.894;fill:#ffffff;fill-opacity:0.3103448;stroke:none;stroke-width:6;stroke-linecap:butt;stroke-linejoin:miter;stroke-miterlimit:4;stroke-dasharray:none;stroke-opacity:1"
         id="rect8017"
         width="184.99998"
         height="8.333333"
         x="88.671333"
         y="770.30463" />
      <rect
         y="770.3761"
         x="283.75488"
         height="8.333333"
         width="219.16667"
         id="rect8019"
         style="opacity:0.894;fill:#ffffff;fill-opacity:0.3103448;stroke:none;stroke-width:6;stroke-linecap:butt;stroke-linejoin:miter;stroke-miterlimit:4;stroke-dasharray:none;stroke-opacity:1" />
      <rect
         style="opacity:0.894;fill:#ffffff;fill-opacity:0.3103448;stroke:none;stroke-width:6;stroke-linecap:butt;stroke-linejoin:miter;stroke-miterlimit:4;stroke-dasharray:none;stroke-opacity:1"
         id="rect8021"
         width="258.33331"
         height="8.333333"
         x="87.736908"
         y="793.70892" />
    </g>
    <path
       style="fill:none;fill-rule:evenodd;stroke:#ffff00;stroke-width:6;stroke-linecap:butt;stroke-linejoin:miter;stroke-miterlimit:4;stroke-dasharray:none;stroke-opacity:1;marker-end:url(#Arrow2Mend);filter:url(#filter5477);fill-opacity:0.31034482"
       d="M 780.6102,638.8958 678.10847,595.4237"
       id="path4899"
       inkscape:connector-curvature="0"
       sodipodi:nodetypes="cc" />
    <path
       style="fill:none;fill-rule:evenodd;stroke:#ffff00;stroke-width:6;stroke-linecap:butt;stroke-linejoin:miter;stroke-miterlimit:4;stroke-dasharray:none;stroke-opacity:1;marker-end:url(#Arrow2Mend-7);filter:url(#filter5477-4)"
       d="M 1075.3997,811.11988 C 1064.97,792.2133 846.4579,682.25512 678.27015,795.34279"
       id="path4899-7"
       inkscape:connector-curvature="0"
       sodipodi:nodetypes="cc" />
    <text
       xml:space="preserve"
       style="font-style:normal;font-weight:normal;font-size:40px;line-height:125%;font-family:sans-serif;letter-spacing:0px;word-spacing:0px;fill:#ffff00;fill-opacity:1;stroke:none;stroke-width:1px;stroke-linecap:butt;stroke-linejoin:miter;stroke-opacity:1;filter:url(#filter7617)"
       x="796.67365"
       y="660.24182"
       id="text7613"
       sodipodi:linespacing="125%"><tspan
         sodipodi:role="line"
         id="tspan7615"
         x="796.67365"
         y="660.24182">Straight arrow</tspan></text>
    <text
       xml:space="preserve"
       style="font-style:normal;font-weight:normal;font-size:40px;line-height:125%;font-family:sans-serif;letter-spacing:0px;word-spacing:0px;fill:#ffff00;fill-opacity:1;stroke:none;stroke-width:1px;stroke-linecap:butt;stroke-linejoin:miter;stroke-opacity:1;filter:url(#filter7617-6)"
       x="950.41626"
       y="858.66034"
       id="text7613-8"
       sodipodi:linespacing="125%"><tspan
         sodipodi:role="line"
         id="tspan7615-5"
         x="950.41626"
         y="858.66034">Curved arrow</tspan></text>
    <rect
       style="opacity:0.894;fill:#ffff00;fill-opacity:0.62745098;stroke:#ffff00;stroke-width:4.23070145;stroke-linecap:butt;stroke-linejoin:miter;stroke-miterlimit:4;stroke-dasharray:none;stroke-opacity:1;filter:url(#filter8035)"
       id="rect7812"
       width="567.81177"
       height="143.54768"
       x="74.361557"
       y="756.01886"
       transform="matrix(1.0012877,0,0,0.9997443,-0.04467898,0.2116706)" />
  </g>
</svg>
